<svg width="14" height="14" viewBox="0 0 14 14" fill="none" xmlns="http://www.w3.org/2000/svg">
<path id="001-chat (Traced)" fill-rule="evenodd" clip-rule="evenodd" d="M2.8252 0.0187648C2.1405 0.10054 1.48301 0.416898 0.975933 0.908446C0.449232 1.41907 0.115046 2.10577 0.0294666 2.85336C-0.0111933 3.20869 -0.0091677 8.23538 0.0317901 8.60349C0.116446 9.36403 0.480151 10.0991 1.01951 10.5998C1.38408 10.9382 1.91597 11.2342 2.35956 11.3456L2.55958 11.3958L2.56807 12.4941L2.57656 13.5925L2.66724 13.7219C2.84388 13.9738 3.20043 14.0735 3.45377 13.9418C3.51028 13.9124 4.37811 13.3395 5.38233 12.6686L7.20815 11.4487H9.17708C11.0402 11.4487 11.162 11.4455 11.4435 11.388C12.8036 11.1103 13.8131 9.9968 13.9682 8.60349C14.0092 8.23538 14.0112 3.20869 13.9705 2.85336C13.8525 1.82209 13.2771 0.941843 12.3766 0.414809C12.1525 0.28364 11.7924 0.141517 11.5031 0.0700386C11.246 0.00652828 11.2242 0.00617018 7.13404 0.000648847C4.87318 -0.00242519 2.93419 0.00572252 2.8252 0.0187648Z" fill="#DAE8FA"/>
</svg>
